<svg viewBox="0 0 523 421" fill="none" xmlns="http://www.w3.org/2000/svg">
<path d="M362.922 94.0625C415.187 107.344 453.312 130.391 453.312 155.938C453.312 196.719 365.891 229.766 258 229.766C150.109 229.766 62.6875 196.797 62.6875 156.016C62.6875 129.219 97.0625 106.016 153.391 93.0469" stroke="#746BD4" stroke-width="6.42259" stroke-miterlimit="10" stroke-linecap="round"/>
<path d="M361.438 90.7031C362.922 104.063 362.531 117.969 362.609 131.875C362.609 133.828 362.609 135.859 361.672 137.656C360.5 139.844 354.875 144.531 352.688 145.547C290.891 173.984 230.891 172.578 161.203 149.141C156.828 147.656 153.703 143.516 153.469 138.828C151.594 107.344 151.516 70.7031 172.141 46.25C193.156 21.25 226.906 10.0781 258.234 10.0781C288.625 10.0781 320.969 20.5469 342.219 43.8281C354.719 57.7344 359.563 73.75 361.438 90.7031Z" stroke="#746BD4" stroke-width="6.42259" stroke-miterlimit="10" stroke-linecap="round"/>
<path d="M163 64.5312C168.547 64.7656 174.094 65 179.719 65.3125M160.344 70.1562H171.672M159.797 75.5469C163.391 75.3125 166.984 75.0781 170.578 74.9219M159.797 79.375C163.703 79.1406 167.687 78.9844 171.594 78.75M159.25 83.0469C163 83.2812 166.75 83.5156 170.578 83.6719M159.25 88.2031C162.688 88.5938 166.125 88.5938 169.484 88.4375M157.688 92.6562L170.578 93.8281M156.047 98.6719H168.938M157.688 104.063H169.016M156.594 109.922H167.375M157.141 115.312H165.734M155.422 122.031C158.625 122.656 161.984 122.656 165.188 121.953M156.047 127.344C159.953 127.812 163.938 127.969 167.922 127.656M157.609 133.906C161.203 134.219 164.797 134.453 168.391 134.766M158.625 140.391C162.453 141.563 166.672 141.641 170.578 140.625M165.734 60.5469C169.406 61.4062 173.234 61.7188 177.062 61.4844M170.578 55.0781C174.172 55.0781 177.766 55.4688 181.359 56.1719M173.781 49.0625C177.766 49.2969 181.75 49.9219 185.578 50.8594M177.531 45.8594C182.297 46.3281 186.984 47.2656 191.516 48.5938M181.828 41.25C186.203 43.125 190.734 44.6875 195.344 45.9375M186.75 37.6563C190.734 38.9844 194.641 40.4687 198.469 42.1875M193.156 33.5156C196.359 36.0938 200.344 37.8125 204.406 38.4375M199.641 30.2344C203.547 32.1094 207.453 33.9844 211.359 35.9375M204.406 26.0156C207.219 28.5156 210.266 30.7031 213.547 32.5M214.875 21.5625C217.531 24.1406 220.188 26.6406 222.844 29.2188M221.75 20C224.328 21.4062 226.594 23.5156 228.234 25.9375M209.719 22.8906C212.375 25 214.953 27.1875 217.297 29.6094M196.125 30.8594C198.391 32.0312 200.578 33.2031 202.844 34.4531M172.219 51.0156C175.422 52.5781 178.859 53.5156 182.453 53.8281M168.078 56.5625C170.344 57.3438 172.609 58.125 174.875 58.8281M162.766 145.547C165.578 146.25 168.703 146.016 171.359 144.766M221.672 31.0937C222.609 26.875 224.25 22.8906 226.516 19.2188M214.484 32.7344C215.656 28.2813 217.219 23.9063 219.016 19.6094M208.469 36.0156C210.422 30.7813 212.453 25.625 214.406 20.3906M204.094 38.6719C203.391 33.8281 204.25 28.6719 206.438 24.2969M196.594 43.75C196.75 38.3594 197.844 32.8906 199.875 27.8906M191.047 48.9062C190.969 44.2969 190.812 39.7656 190.734 35.1562M184.797 53.2031C184.406 48.5156 184.406 43.8281 184.875 39.2188M179.563 55.8594C179.016 51.4062 179.016 46.875 179.641 42.4219" stroke="#746BD4" stroke-width="1.60565" stroke-miterlimit="10" stroke-linecap="round"/>
<path d="M177.063 62.9688C176.672 62.9688 176.359 62.5 176.203 62.1094C174.641 58.2031 173.469 54.1406 172.688 50M175.813 69.1406C172.688 66.875 170.031 64.0625 167.922 60.7812C167.688 60.4687 167.609 59.7656 168 59.7656M166.281 64.1406C165.969 63.9844 165.656 63.9063 165.266 63.75C166.594 68.8281 168.391 73.75 170.734 78.5156M162.609 70.2344C164.484 76.0938 166.828 81.7188 169.641 87.1875M160.344 78.75C164.016 84.0625 167.219 89.6094 170.031 95.3906M159.641 88.5156C161.75 93.9844 164.797 99.1406 168.469 103.672M157.688 96.4844C160.109 102.109 163.391 107.422 167.297 112.188M156.828 103.75C159.953 109.141 163.078 114.531 166.125 119.922M156.281 113.75C156.203 114.844 156.828 115.859 157.453 116.719C160.422 120.859 163.547 124.844 166.984 128.516M154.953 121.719C154.406 122.578 155.031 123.672 155.578 124.453C158.625 128.828 161.75 133.203 164.797 137.578M154.953 130.078C154.25 130.156 154.406 131.25 154.797 131.875C158.156 137.188 162.063 142.109 166.594 146.484M228.391 17.6563C228.703 20.1563 229.328 22.6562 230.344 25M232.297 15.7812C233.156 18.3594 234.016 21.0156 234.953 23.5938M237.141 16.0938C236.984 18.5938 237.453 21.1719 238.391 23.4375M242.375 13.9062C242.922 16.4844 243.234 19.0625 243.313 21.7187M228.078 23.8281C230.813 20.7812 233.469 17.7344 236.203 14.6875M232.844 24.0625C235.734 19.9219 239.484 16.3281 243.781 13.75M239.016 23.6719C242.766 20.7031 246.75 17.8906 250.734 15.3125M245.891 22.5781C249.641 19.7656 253.391 17.0312 257.141 14.2187M247.375 14.8438C249.172 17.0313 251.438 18.8281 253.938 20.1562M315.422 47.8906C326.281 56.9531 334.406 69.375 338.234 82.9688C342.531 98.0469 341.594 114.141 340.656 129.766M314.719 68.0469C321.281 74.2188 325.188 83.2031 325.109 92.1875M309.172 77.2656C312.219 82.5 314.172 88.3594 314.719 94.375M117.609 106.484C117.531 106.797 117.063 106.328 117.375 106.172C117.609 106.016 118 106.25 118.234 106.406C121.672 109.453 125.031 112.5 128.469 115.625M109.875 109.844C113.391 112.656 117.141 115.312 120.969 117.656M102.219 113.75C105.969 116.797 109.797 119.844 113.547 122.891M91.9844 118.125C96.3594 121.484 100.656 124.844 105.031 128.125M86.4375 121.953C90.7344 126.953 96.4375 130.703 102.766 132.578M77.9219 127.344C82.6875 130.781 88.0781 133.437 93.7031 135.156M74.5625 135C79.9531 138.75 85.8125 141.719 91.9844 143.828M72.9219 143.125C77.9219 146.406 83.8594 148.203 89.7969 148.125M79.6406 132.031L89.25 138.594" stroke="#746BD4" stroke-width="1.60565" stroke-miterlimit="10" stroke-linecap="round"/>
<path d="M90.2656 121.406C92.375 123.828 91.5937 128.438 94.1719 130.313C90.5 129.766 87.0625 127.578 84.9531 124.531M98.3906 114.297C100.109 117.344 102.844 119.844 105.969 121.328M107.141 110.859C110.422 112.422 113.469 114.531 116.047 117.109M122.141 103.984C125.422 106.094 129.719 106.328 131.203 110.547M133.937 102.5C135.187 103.906 133.937 107.344 135.187 108.828C133.703 107.109 132.219 105.313 130.734 103.594M138.703 99.922C140.5 101.484 141.906 103.438 142.766 105.625M143.078 98.672C144.328 100.469 145.656 102.188 146.906 103.984M146.906 97.0314C148.547 98.5157 149.797 100.391 150.656 102.422M73.2344 138.828C76.5937 140.313 79.9531 141.875 83.3125 143.359M70.4219 144.609C72.6875 145.625 75.0312 146.328 77.5312 146.563M67.7656 150C70.9687 150.469 74.25 150.547 77.4531 150.235M65.6562 159.063C68.8594 158.516 72.6875 154.844 75.8906 154.297C72.6875 155 69.3281 154.922 66.125 154.141M70.5781 170.391L79.7187 165.469M73.8594 174.141C75.8125 172.813 77.7656 171.563 79.7187 170.234M73.7812 179.922C76.125 178.047 78.625 176.406 81.2812 175M85.5 176.641C82.8437 177.656 80.4219 179.375 78.5469 181.563C80.5 180.313 83.8594 178.203 85.5 176.641Z" stroke="#746BD4" stroke-width="1.60565" stroke-miterlimit="10" stroke-linecap="round"/>
<path d="M145.188 108.906C144.953 105.234 146.672 101.484 149.562 99.2187C146.359 100.703 141.047 103.281 140.734 106.797C141.828 104.297 141.281 100.312 143.156 98.2031M125.969 106.328C123.234 108.125 121.594 111.562 122.063 114.766M111.281 113.594C109.641 115.469 109.094 118.281 109.953 120.625M91.4375 133.672C89.0937 130.859 88.5469 126.641 90.1875 123.281M87.4531 137.109C84.5625 134.062 83.0781 129.766 83.5469 125.547M83.7031 140.781C81.2031 137.5 79.7188 133.437 79.5625 129.297M83.625 149.531C80.2656 146.328 78.0781 141.953 77.5312 137.344M80.1094 151.953C76.2812 149.141 73.1563 145.391 70.9688 141.172M72.0625 160C73.7031 162.969 75.5781 165.703 77.8438 168.203M64.7969 152.188C70.5781 156.875 76.3594 161.484 82.1406 166.172M70.6563 146.953C72.8438 149.922 75.4219 152.656 78.3906 154.844M102.141 115.859C101.359 119.609 101.359 123.438 102.141 127.188C101.828 122.5 101.672 120.547 102.141 115.859Z" stroke="#746BD4" stroke-width="1.60565" stroke-miterlimit="10" stroke-linecap="round"/>
<path d="M69.4062 171.328L68.2344 172.266C70.4219 168.047 73.0781 164.063 76.0469 160.313M73.7031 174.531C74.7969 170.391 76.8281 166.484 79.6406 163.203M78.3125 171.406C79.7187 175.156 80.5781 179.141 80.8125 183.125M84.0156 171.875C84.3281 177.344 85.4219 182.813 87.2188 187.969M88.7813 174.531C89.4063 179.844 90.6562 185.078 92.375 190.156M94.4062 178.75C96.5937 183.125 98 187.969 98.3906 192.891M86.5156 184.531C91.0469 182.5 95.5781 180.391 100.109 178.359M91.5156 193.125C95.2656 192.578 98.8594 191.016 101.828 188.672M93.5469 127.266C92.5313 126.016 93.2344 124.219 93.9375 122.813C96.0469 118.828 98.7812 115.156 101.984 111.953M387.766 113.984C399.484 121.25 411.672 129.062 418.625 140.937M392.297 129.219C397.219 131.719 401.203 135.937 403.312 141.016M305.578 209.063C311.828 211.406 318.781 210.781 325.422 210.078C344.562 208.125 364.016 205.938 381.828 198.672C385.891 196.953 390.344 194.531 391.594 190.313M334.094 197.266C346.828 197.5 359.641 194.297 370.734 187.969M155.5 157.344C162.688 158.828 169.797 160.391 176.984 161.875M158.781 163.359C158.391 163.281 158.156 163.75 158.312 164.141C158.469 164.453 158.859 164.609 159.25 164.688C164.172 166.016 169.25 166.797 174.328 167.109M189.953 183.203C189.719 182.969 189.25 183.281 189.25 183.672C189.25 184.063 189.562 184.297 189.797 184.531C192.297 186.719 195.344 188.047 198.078 189.922C200.812 191.797 203.391 194.375 203.859 197.578C204.328 201.016 202.453 204.531 203 207.969M287.687 132.031C287.375 133.828 286.281 135.547 284.719 136.484M200.734 145.938C203.859 146.797 207.219 146.875 210.422 146.094" stroke="#746BD4" stroke-width="1.60565" stroke-miterlimit="10" stroke-linecap="round"/>
<path d="M27.72 369.14C22.88 369.14 18.964 368.26 15.972 366.5C13.068 364.74 10.956 362.364 9.636 359.372C8.316 356.292 7.656 352.86 7.656 349.076C7.656 344.412 8.536 339.572 10.296 334.556C12.056 329.452 14.476 324.568 17.556 319.904C20.636 315.24 24.156 311.06 28.116 307.364C32.164 303.58 36.476 300.588 41.052 298.388C45.716 296.188 50.424 295.088 55.176 295.088C60.456 295.088 64.328 296.276 66.792 298.652C69.256 301.028 70.488 303.888 70.488 307.232C70.488 308.816 70.224 310.488 69.696 312.248C69.08 314.184 68.332 316.208 67.452 318.32C66.572 320.344 65.78 322.192 65.076 323.864C64.372 325.448 63.888 326.592 63.624 327.296C62.216 327.296 61.248 326.9 60.72 326.108C60.192 325.316 59.928 324.26 59.928 322.94C59.928 321.444 60.236 319.684 60.852 317.66C61.468 315.636 62.172 313.656 62.964 311.72C64.02 309.432 64.548 307.232 64.548 305.12C64.548 303.096 63.976 301.468 62.832 300.236C61.776 298.916 60.06 298.256 57.684 298.256C53.02 298.256 48.576 299.488 44.352 301.952C40.216 304.416 36.388 307.672 32.868 311.72C29.436 315.68 26.444 320.036 23.892 324.788C21.428 329.54 19.492 334.292 18.084 339.044C16.676 343.708 15.972 347.932 15.972 351.716C15.972 355.94 16.808 359.416 18.48 362.144C20.24 364.872 23.54 366.236 28.38 366.236C32.252 366.236 35.86 365.18 39.204 363.068C42.636 360.956 45.848 358.008 48.84 354.224C50.072 352.728 51.084 350.968 51.876 348.944C52.756 346.832 53.24 344.94 53.328 343.268C51.832 343.444 50.248 343.62 48.576 343.796C46.904 343.884 45.232 343.928 43.56 343.928C41.712 343.928 39.952 343.84 38.28 343.664C36.608 343.4 35.2 343.004 34.056 342.476C32.56 341.772 31.768 340.716 31.68 339.308C31.68 339.308 32.032 339.352 32.736 339.44C33.528 339.44 34.496 339.44 35.64 339.44C36.432 339.44 37.312 339.44 38.28 339.44C39.248 339.352 40.26 339.264 41.316 339.176C42.9 339 44.792 338.78 46.992 338.516C49.28 338.164 51.524 337.812 53.724 337.46C56.012 337.108 57.948 336.844 59.532 336.668C61.204 336.404 62.216 336.272 62.568 336.272C67.408 336.272 70.092 337.944 70.62 341.288C69.828 341.024 68.992 340.892 68.112 340.892C66.88 340.892 65.472 341.068 63.888 341.42C62.392 341.772 60.5 342.168 58.212 342.608C58.388 342.96 58.476 343.312 58.476 343.664C58.476 344.016 58.476 344.412 58.476 344.852C58.476 348.636 57.42 352.024 55.308 355.016C53.284 358.008 50.644 360.56 47.388 362.672C44.22 364.784 40.876 366.368 37.356 367.424C33.836 368.568 30.624 369.14 27.72 369.14ZM78.6473 367.424C75.3913 367.424 72.9273 366.368 71.2553 364.256C69.6713 362.144 68.8793 359.46 68.8793 356.204C68.8793 352.508 69.8473 348.46 71.7833 344.06C73.5433 340.1 75.7873 336.492 78.5153 333.236C81.3313 329.98 84.3673 327.384 87.6233 325.448C90.8793 323.424 94.0033 322.412 96.9953 322.412C100.603 322.412 103.243 323.512 104.915 325.712C106.587 327.912 107.423 330.684 107.423 334.028C107.423 337.636 106.499 341.508 104.651 345.644C103.683 347.756 102.275 350.044 100.427 352.508C98.5793 354.972 96.4673 357.348 94.0913 359.636C91.7153 361.924 89.1633 363.816 86.4352 365.312C83.7953 366.72 81.1993 367.424 78.6473 367.424ZM81.1553 364.784C83.0033 364.784 84.8513 364.168 86.6993 362.936C88.5473 361.616 90.3073 360.032 91.9793 358.184C93.6513 356.336 95.1033 354.488 96.3353 352.64C97.6553 350.704 98.6233 349.076 99.2393 347.756C100.735 344.94 101.835 342.256 102.539 339.704C103.243 337.064 103.595 334.776 103.595 332.84C103.595 328.616 102.011 326.504 98.8433 326.504C96.9073 326.504 94.8393 327.296 92.6393 328.88C90.5273 330.376 88.4593 332.4 86.4352 334.952C84.4113 337.504 82.6513 340.364 81.1553 343.532C77.9873 349.868 76.4033 355.016 76.4033 358.976C76.4033 362.144 77.4153 363.992 79.4393 364.52C79.7033 364.608 79.9673 364.696 80.2313 364.784C80.4953 364.784 80.8033 364.784 81.1553 364.784ZM114.261 366.896C112.589 366.896 111.181 366.368 110.037 365.312C108.893 364.168 108.321 362.232 108.321 359.504C108.321 358.888 108.365 358.228 108.453 357.524C108.541 356.732 108.673 355.896 108.849 355.016C109.289 352.64 110.213 349.604 111.621 345.908C113.029 342.212 114.701 338.296 116.637 334.16C118.573 329.936 120.553 325.888 122.577 322.016C124.601 318.056 126.449 314.668 128.121 311.852C131.377 306.484 134.413 302.348 137.229 299.444C140.045 296.54 142.553 294.56 144.753 293.504C146.953 292.448 148.801 291.964 150.297 292.052C148.009 294.604 145.501 297.728 142.773 301.424C140.045 305.12 137.141 309.564 134.061 314.756C130.189 321.444 126.801 327.516 123.897 332.972C121.081 338.428 118.661 344.016 116.637 349.736C115.493 353.08 114.921 355.808 114.921 357.92C114.921 360.912 115.933 362.408 117.957 362.408C119.541 362.408 121.301 361.616 123.237 360.032C125.261 358.448 126.845 357.04 127.989 355.808C129.749 354.048 131.289 352.42 132.609 350.924C134.017 349.34 135.381 347.756 136.701 346.172C136.965 345.908 137.185 345.776 137.361 345.776C137.889 345.776 138.153 346.172 138.153 346.964C138.153 347.404 137.977 347.8 137.625 348.152C136.657 349.296 135.689 350.484 134.721 351.716C133.841 352.86 132.873 354.004 131.817 355.148C130.937 356.292 129.925 357.436 128.781 358.58C127.725 359.636 126.669 360.648 125.613 361.616C124.117 363.024 122.313 364.256 120.201 365.312C118.089 366.368 116.109 366.896 114.261 366.896ZM141.507 367.028C138.603 367.028 136.579 366.324 135.435 364.916C134.291 363.508 133.719 361.792 133.719 359.768C133.719 357.128 134.335 354.312 135.567 351.32C136.887 348.328 138.031 345.996 138.999 344.324C141.375 340.54 144.191 336.932 147.447 333.5C150.703 330.068 154.135 327.296 157.743 325.184C161.439 322.984 164.959 321.884 168.303 321.884C170.591 321.884 172.835 322.412 175.035 323.468C175.475 322.5 175.871 321.664 176.223 320.96C176.575 320.168 176.927 319.42 177.279 318.716C180.359 313.26 182.955 308.64 185.067 304.856C187.267 301.072 189.599 298.124 192.063 296.012C194.615 293.812 197.915 292.492 201.963 292.052C199.587 295.22 197.519 298.08 195.759 300.632C193.999 303.184 192.327 305.78 190.743 308.42C189.159 310.972 187.531 313.788 185.859 316.868C184.187 319.948 182.295 323.6 180.183 327.824C180.359 328.352 180.447 328.704 180.447 328.88C180.447 329.496 180.227 330.024 179.787 330.464C179.435 330.816 179.039 330.992 178.599 330.992C176.751 334.688 174.947 338.428 173.187 342.212C171.515 345.908 170.107 349.34 168.963 352.508C167.907 355.588 167.379 358.008 167.379 359.768C167.379 361.616 168.039 362.54 169.359 362.54C170.151 362.54 171.119 362.232 172.263 361.616C174.199 360.648 176.135 359.284 178.071 357.524C180.095 355.676 181.943 353.784 183.615 351.848C184.583 350.88 185.463 349.956 186.255 349.076C187.047 348.108 187.795 347.14 188.499 346.172C188.763 345.908 188.983 345.776 189.159 345.776C189.687 345.776 189.951 346.128 189.951 346.832C189.951 347.36 189.775 347.8 189.423 348.152C187.927 350.088 186.387 352.024 184.803 353.96C183.219 355.808 181.547 357.612 179.787 359.372C179.435 359.724 179.083 360.12 178.731 360.56C178.379 360.912 177.983 361.264 177.543 361.616C175.695 363.112 173.803 364.388 171.867 365.444C170.019 366.5 168.347 367.028 166.851 367.028C164.651 367.028 163.155 366.368 162.363 365.048C161.659 363.64 161.307 362.012 161.307 360.164C161.307 358.932 161.395 357.656 161.571 356.336C161.835 355.016 162.143 353.872 162.495 352.904C162.759 351.936 163.067 350.836 163.419 349.604C163.859 348.372 164.343 347.14 164.871 345.908C162.935 348.9 160.735 352.024 158.271 355.28C155.807 358.536 153.167 361.308 150.351 363.596C147.535 365.884 144.587 367.028 141.507 367.028ZM142.299 363.728C143.795 363.728 145.995 362.628 148.899 360.428C151.011 358.756 153.211 356.732 155.499 354.356C157.787 351.892 159.899 349.516 161.835 347.228C163.859 344.852 165.399 343.004 166.455 341.684C167.511 339.132 168.655 336.492 169.887 333.764C171.207 330.948 172.571 328.176 173.979 325.448C173.275 325.096 172.439 324.92 171.471 324.92C169.271 324.92 166.719 325.932 163.815 327.956C160.999 329.892 158.271 332.268 155.631 335.084C152.639 338.252 149.911 341.684 147.447 345.38C144.983 348.988 143.135 352.288 141.903 355.28C141.287 356.6 140.847 357.788 140.583 358.844C140.407 359.812 140.319 360.648 140.319 361.352C140.319 362.936 140.979 363.728 142.299 363.728ZM196.502 368.48C193.246 368.48 190.65 367.556 188.714 365.708C186.778 363.772 185.81 361.088 185.81 357.656C185.81 355.016 186.294 352.244 187.262 349.34C188.318 346.436 189.33 344.148 190.298 342.476C192.322 338.78 194.742 335.392 197.558 332.312C200.462 329.232 203.41 326.768 206.402 324.92C209.482 322.984 212.298 322.016 214.85 322.016C217.226 322.016 219.25 322.676 220.922 323.996C222.682 325.316 223.562 327.076 223.562 329.276C223.562 330.156 223.342 331.168 222.902 332.312C222.462 333.456 221.758 334.644 220.79 335.876C217.27 340.364 213.354 343.884 209.042 346.436C204.818 348.9 199.978 350.748 194.522 351.98C194.17 353.124 193.862 354.268 193.598 355.412C193.334 356.468 193.114 357.48 192.938 358.448C192.85 358.888 192.762 359.328 192.674 359.768C192.674 360.12 192.674 360.516 192.674 360.956C192.674 362.716 193.07 363.992 193.862 364.784C194.742 365.488 195.798 365.84 197.03 365.84C198.966 365.84 201.034 365.356 203.234 364.388C205.434 363.332 207.502 362.144 209.438 360.824C211.374 359.504 212.826 358.448 213.794 357.656C214.762 356.776 215.686 355.896 216.566 355.016C217.534 354.048 218.59 352.992 219.734 351.848C220.614 350.88 221.45 349.956 222.242 349.076C223.034 348.108 223.782 347.14 224.486 346.172C224.75 345.908 224.97 345.776 225.146 345.776C225.674 345.776 225.938 346.172 225.938 346.964C225.938 347.404 225.762 347.8 225.41 348.152C223.826 350.088 222.242 352.024 220.658 353.96C219.074 355.808 217.446 357.612 215.774 359.372C213.838 361.396 211.154 363.42 207.722 365.444C204.378 367.468 200.638 368.48 196.502 368.48ZM195.314 350.264C197.602 349.296 200.242 347.888 203.234 346.04C206.314 344.192 209.262 341.992 212.078 339.44C214.982 336.8 217.358 333.984 219.206 330.992C219.822 330.024 220.13 329.144 220.13 328.352C220.13 327.12 219.426 326.504 218.018 326.504C217.05 326.504 215.862 326.856 214.454 327.56C210.054 329.936 206.27 333.148 203.102 337.196C199.934 341.244 197.338 345.6 195.314 350.264ZM215.438 367.292C219.222 360.252 222.346 353.476 224.81 346.964C227.362 340.364 230.266 333.72 233.522 327.032C234.49 325.272 235.722 324.084 237.218 323.468C238.714 322.764 240.166 322.412 241.574 322.412C242.718 322.412 243.73 322.544 244.61 322.808C244.346 323.424 243.642 324.656 242.498 326.504C241.442 328.264 240.298 330.288 239.066 332.576C238.186 334.16 236.866 336.624 235.106 339.968C233.346 343.224 231.718 346.612 230.222 350.132C231.014 349.164 232.246 347.58 233.918 345.38C235.59 343.18 237.526 340.804 239.726 338.252C241.926 335.612 244.214 333.104 246.59 330.728C249.054 328.264 251.43 326.284 253.718 324.788C256.094 323.204 258.206 322.412 260.054 322.412C261.462 322.412 262.694 322.852 263.75 323.732C264.806 324.612 265.334 325.8 265.334 327.296C265.334 329.496 264.41 332.092 262.562 335.084C260.714 337.988 258.866 340.848 257.018 343.664C256.666 344.192 256.006 345.204 255.038 346.7C254.158 348.196 253.19 349.912 252.134 351.848C251.078 353.696 250.154 355.5 249.362 357.26C248.658 358.932 248.306 360.252 248.306 361.22C248.306 362.188 248.702 362.672 249.494 362.672C251.166 362.672 252.882 362.012 254.642 360.692C256.49 359.372 258.25 357.876 259.922 356.204C261.594 354.444 262.914 352.992 263.882 351.848C264.85 350.792 265.73 349.78 266.522 348.812C267.314 347.844 268.106 346.92 268.898 346.04C269.162 345.776 269.382 345.644 269.558 345.644C270.086 345.644 270.35 346.04 270.35 346.832C270.35 347.36 270.174 347.8 269.822 348.152C268.854 349.296 267.886 350.484 266.918 351.716C265.95 352.86 264.938 354.004 263.882 355.148C262.914 356.292 261.902 357.436 260.846 358.58C259.878 359.636 258.866 360.648 257.81 361.616C254.026 365.136 250.506 366.896 247.25 366.896C245.05 366.896 243.554 366.236 242.762 364.916C242.058 363.596 241.706 361.968 241.706 360.032C241.706 357.92 242.278 355.632 243.422 353.168C244.566 350.704 245.974 348.196 247.646 345.644C249.318 343.004 250.99 340.452 252.662 337.988C254.422 335.524 255.874 333.28 257.018 331.256C258.162 329.144 258.734 327.384 258.734 325.976C258.734 325.448 258.426 325.184 257.81 325.184C257.282 325.184 256.226 325.844 254.642 327.164C253.146 328.396 251.518 329.892 249.758 331.652C247.998 333.324 246.326 334.952 244.742 336.536C243.246 338.12 242.234 339.264 241.706 339.968C239.506 342.344 237.35 344.896 235.238 347.624C233.214 350.352 231.278 352.992 229.43 355.544C228.374 357.04 227.45 358.58 226.658 360.164C225.866 361.66 224.986 363.244 224.018 364.916C223.578 365.708 222.962 366.192 222.17 366.368C221.466 366.456 220.498 366.544 219.266 366.632C218.386 366.632 217.682 366.632 217.154 366.632C216.626 366.72 216.054 366.94 215.438 367.292ZM291.191 368.084C289.871 367.38 288.859 366.412 288.155 365.18C287.451 363.948 287.099 362.056 287.099 359.504C287.099 357.656 287.583 355.72 288.551 353.696C289.607 351.584 290.795 349.56 292.115 347.624C293.523 345.6 294.711 343.796 295.679 342.212C299.023 336.756 302.411 331.212 305.843 325.58C309.363 319.948 312.487 314.492 315.215 309.212C317.943 303.844 319.835 298.96 320.891 294.56C321.067 294.472 321.419 294.428 321.947 294.428C323.531 294.428 325.159 295.22 326.831 296.804C328.591 298.3 329.559 299.796 329.735 301.292C329.735 301.556 329.735 301.82 329.735 302.084C329.823 302.348 329.867 302.656 329.867 303.008C329.867 305.208 329.515 307.892 328.811 311.06C328.107 314.228 327.315 317.572 326.435 321.092C325.643 324.612 324.939 328.088 324.323 331.52C323.707 335.128 323.091 338.604 322.475 341.948C321.947 345.292 321.463 348.108 321.023 350.396C323.135 347.668 325.555 344.5 328.283 340.892C331.011 337.196 333.871 333.324 336.863 329.276C339.855 325.228 342.803 321.268 345.707 317.396C348.611 313.436 351.251 309.828 353.627 306.572C356.091 303.228 358.071 300.456 359.567 298.256C361.151 296.056 362.075 294.736 362.339 294.296C363.923 294.296 365.551 294.736 367.223 295.616C368.895 296.496 369.731 297.816 369.731 299.576C369.731 299.928 369.599 300.588 369.335 301.556C369.071 302.524 368.103 304.592 366.431 307.76C363.703 313.392 360.843 319.112 357.851 324.92C354.859 330.728 352.131 336.624 349.667 342.608C348.611 345.248 347.511 347.976 346.367 350.792C345.311 353.52 344.255 356.424 343.199 359.504C342.583 361.352 342.187 362.98 342.011 364.388C341.923 365.796 341.835 366.896 341.747 367.688C339.899 366.72 338.535 365.4 337.655 363.728C336.863 361.968 336.467 360.032 336.467 357.92C336.467 355.104 337.259 351.76 338.843 347.888C340.427 344.016 342.363 339.968 344.651 335.744C347.027 331.432 349.359 327.252 351.647 323.204C354.023 319.068 356.003 315.328 357.587 311.984C359.171 308.64 359.963 305.956 359.963 303.932C359.963 303.932 359.391 304.724 358.247 306.308C357.103 307.892 355.651 309.872 353.891 312.248C352.131 314.624 350.327 317.088 348.479 319.64C346.631 322.192 344.959 324.436 343.463 326.372C342.055 328.308 341.087 329.628 340.559 330.332C336.775 335.524 333.255 340.276 329.999 344.588C326.831 348.812 324.411 352.508 322.739 355.676C321.859 357.524 321.243 359.196 320.891 360.692C320.627 362.1 320.495 363.376 320.495 364.52C318.295 364.52 316.799 363.552 316.007 361.616C315.215 359.68 314.819 357.48 314.819 355.016C314.819 353.52 314.907 352.024 315.083 350.528C315.259 348.944 315.435 347.58 315.611 346.436C316.227 342.652 317.019 338.34 317.987 333.5C318.955 328.572 319.923 323.732 320.891 318.98C321.947 314.14 322.739 310.048 323.267 306.704C322.475 308.992 321.375 311.544 319.967 314.36C318.559 317.088 317.063 319.86 315.479 322.676C313.983 325.404 312.531 327.912 311.123 330.2C309.715 332.488 308.615 334.248 307.823 335.48C306.151 337.944 304.391 340.804 302.543 344.06C300.783 347.228 299.111 350.352 297.527 353.432C295.855 356.6 294.403 359.548 293.171 362.276C292.027 364.916 291.367 366.852 291.191 368.084ZM367.065 367.028C364.161 367.028 362.137 366.324 360.993 364.916C359.849 363.508 359.277 361.792 359.277 359.768C359.277 357.128 359.893 354.312 361.125 351.32C362.445 348.328 363.589 345.996 364.557 344.324C366.933 340.54 369.749 336.932 373.005 333.5C376.261 330.068 379.693 327.296 383.301 325.184C386.997 322.984 390.517 321.884 393.861 321.884C395.621 321.884 397.337 322.192 399.009 322.808C400.681 323.336 402.309 324.26 403.893 325.58C404.685 326.196 405.213 326.812 405.477 327.428C405.829 327.956 406.005 328.44 406.005 328.88C406.005 330.2 405.433 330.86 404.289 330.86C403.497 330.86 402.925 330.332 402.573 329.276C401.429 326.284 399.581 324.788 397.029 324.788C394.829 324.788 392.321 325.8 389.505 327.824C386.689 329.848 383.917 332.268 381.189 335.084C378.197 338.252 375.469 341.684 373.005 345.38C370.541 348.988 368.693 352.288 367.461 355.28C366.845 356.6 366.405 357.788 366.141 358.844C365.965 359.812 365.877 360.648 365.877 361.352C365.877 362.936 366.537 363.728 367.857 363.728C369.353 363.728 371.553 362.628 374.457 360.428C376.569 358.756 378.725 356.732 380.925 354.356C383.213 351.98 385.325 349.648 387.261 347.36C389.197 344.984 390.737 343.136 391.881 341.816C392.321 341.112 392.717 340.452 393.069 339.836C393.509 339.22 393.905 338.692 394.257 338.252C394.609 337.812 395.181 337.46 395.973 337.196C396.853 336.932 397.733 336.8 398.613 336.8C399.669 336.8 400.549 336.976 401.253 337.328C401.957 337.68 402.089 338.296 401.649 339.176C401.649 339.264 401.165 340.188 400.197 341.948C399.229 343.62 398.085 345.644 396.765 348.02C395.533 350.396 394.433 352.684 393.465 354.884C392.937 356.116 392.497 357.26 392.145 358.316C391.793 359.372 391.617 360.252 391.617 360.956C391.617 362.1 392.057 362.672 392.937 362.672C393.553 362.672 394.477 362.32 395.709 361.616C397.645 360.648 399.581 359.24 401.517 357.392C403.541 355.544 405.389 353.652 407.061 351.716C408.029 350.748 408.909 349.824 409.701 348.944C410.493 348.064 411.241 347.14 411.945 346.172C412.209 345.908 412.429 345.776 412.605 345.776C413.133 345.776 413.397 346.172 413.397 346.964C413.397 347.404 413.221 347.8 412.869 348.152C411.901 349.296 410.933 350.484 409.965 351.716C408.997 352.86 407.985 354.004 406.929 355.148C405.961 356.292 404.949 357.436 403.893 358.58C402.925 359.636 401.913 360.648 400.857 361.616C397.073 365.136 393.597 366.896 390.429 366.896C389.021 366.896 387.833 366.412 386.865 365.444C385.897 364.388 385.413 362.76 385.413 360.56C385.413 358.888 385.721 356.996 386.337 354.884C386.513 353.916 386.777 352.948 387.129 351.98C387.569 351.012 387.965 350 388.317 348.944C386.557 351.76 384.533 354.576 382.245 357.392C380.045 360.12 377.669 362.408 375.117 364.256C372.565 366.104 369.881 367.028 367.065 367.028ZM404.053 412.568C401.589 412.568 399.873 411.688 398.905 409.928C397.937 408.168 397.453 405.88 397.453 403.064C397.453 401.304 397.629 399.368 397.981 397.256C398.245 395.144 398.641 392.988 399.169 390.788C401.545 380.932 404.933 371.252 409.333 361.748C413.821 352.244 418.353 342.74 422.929 333.236H420.421C419.453 333.236 418.969 332.972 418.969 332.444C418.969 332.092 419.189 331.784 419.629 331.52C420.157 331.168 420.861 330.992 421.741 330.992H423.721C426.009 326.064 428.253 321.532 430.453 317.396C432.653 313.172 435.117 308.64 437.845 303.8C439.869 300.192 442.201 297.332 444.841 295.22C447.481 293.108 450.077 292.052 452.629 292.052C452.893 292.052 453.157 292.052 453.421 292.052C453.773 292.052 454.081 292.096 454.345 292.184C451.441 296.32 448.801 300.28 446.425 304.064C444.137 307.76 441.849 311.764 439.561 316.076C437.273 320.3 434.633 325.272 431.641 330.992H453.289L456.193 326.504C456.633 325.624 457.777 324.788 459.625 323.996C461.473 323.116 463.013 322.676 464.245 322.676C465.301 322.676 465.829 323.028 465.829 323.732C465.829 324.348 465.609 324.92 465.169 325.448C463.849 327.56 462.309 329.98 460.549 332.708C458.789 335.348 457.117 338.164 455.533 341.156C453.949 344.148 452.629 347.096 451.573 350C450.517 352.904 449.989 355.588 449.989 358.052C449.989 359.372 450.253 360.428 450.781 361.22C451.309 362.012 452.233 362.408 453.553 362.408C454.961 362.408 456.589 361.748 458.437 360.428C460.285 359.02 462.045 357.48 463.717 355.808C465.389 354.048 466.665 352.684 467.545 351.716C468.425 350.748 469.261 349.824 470.053 348.944C470.845 348.064 471.637 347.14 472.429 346.172C472.605 345.908 472.825 345.776 473.089 345.776C473.617 345.776 473.881 346.128 473.881 346.832C473.881 347.272 473.661 347.712 473.221 348.152C471.373 350.44 469.437 352.772 467.413 355.148C466.005 356.82 464.421 358.536 462.661 360.296C460.901 362.056 459.009 363.552 456.985 364.784C454.961 365.928 452.717 366.5 450.253 366.5C448.317 366.5 446.645 365.884 445.237 364.652C443.917 363.332 443.257 361.132 443.257 358.052C443.257 356.732 443.389 355.28 443.653 353.696C444.357 349.824 445.545 346.128 447.217 342.608C448.889 339 450.517 335.876 452.101 333.236H430.453L428.077 338.12C428.693 339.88 429.133 341.992 429.397 344.456C429.661 346.832 429.793 349.296 429.793 351.848C429.793 355.896 429.529 359.988 429.001 364.124C428.561 368.26 428.077 371.692 427.549 374.42C426.229 381.196 424.469 387.488 422.269 393.296C420.157 399.104 417.605 403.768 414.613 407.288C411.621 410.808 408.101 412.568 404.053 412.568ZM468.469 314.36C467.413 314.36 466.577 314.008 465.961 313.304C465.345 312.6 465.037 311.764 465.037 310.796C465.037 309.564 465.521 308.508 466.489 307.628C467.457 306.748 468.513 306.308 469.657 306.308C470.801 306.308 471.681 306.704 472.297 307.496C473.001 308.2 473.265 309.124 473.089 310.268C472.825 311.412 472.253 312.38 471.373 313.172C470.581 313.964 469.613 314.36 468.469 314.36ZM405.373 410.324C407.045 410.324 408.673 409.356 410.257 407.42C411.929 405.572 413.469 403.284 414.877 400.556C416.373 397.828 417.649 395.144 418.705 392.504C419.761 389.864 420.553 387.84 421.081 386.432C422.049 383.792 422.973 380.492 423.853 376.532C424.821 372.572 425.569 368.392 426.097 363.992C426.713 359.504 427.021 355.236 427.021 351.188C427.021 347.756 426.757 344.72 426.229 342.08C424.645 345.512 422.797 349.516 420.685 354.092C418.661 358.58 416.593 363.288 414.481 368.216C412.369 373.232 410.433 378.116 408.673 382.868C406.913 387.708 405.505 392.108 404.449 396.068C403.305 400.116 402.733 403.372 402.733 405.836C402.733 408.74 403.613 410.236 405.373 410.324ZM475.991 367.028C473.087 367.028 471.063 366.324 469.919 364.916C468.775 363.508 468.203 361.792 468.203 359.768C468.203 357.128 468.819 354.312 470.051 351.32C471.371 348.328 472.515 345.996 473.483 344.324C475.859 340.54 478.675 336.932 481.931 333.5C485.187 330.068 488.619 327.296 492.227 325.184C495.923 322.984 499.443 321.884 502.787 321.884C504.547 321.884 506.263 322.192 507.935 322.808C509.607 323.336 511.235 324.26 512.819 325.58C513.611 326.196 514.139 326.812 514.403 327.428C514.755 327.956 514.931 328.44 514.931 328.88C514.931 330.2 514.359 330.86 513.215 330.86C512.423 330.86 511.851 330.332 511.499 329.276C510.355 326.284 508.507 324.788 505.955 324.788C503.755 324.788 501.247 325.8 498.431 327.824C495.615 329.848 492.843 332.268 490.115 335.084C487.123 338.252 484.395 341.684 481.931 345.38C479.467 348.988 477.619 352.288 476.387 355.28C475.771 356.6 475.331 357.788 475.067 358.844C474.891 359.812 474.803 360.648 474.803 361.352C474.803 362.936 475.463 363.728 476.783 363.728C478.279 363.728 480.479 362.628 483.383 360.428C485.495 358.756 487.651 356.732 489.851 354.356C492.139 351.98 494.251 349.648 496.187 347.36C498.123 344.984 499.663 343.136 500.807 341.816C501.247 341.112 501.643 340.452 501.995 339.836C502.435 339.22 502.831 338.692 503.183 338.252C503.535 337.812 504.107 337.46 504.899 337.196C505.779 336.932 506.659 336.8 507.539 336.8C508.595 336.8 509.475 336.976 510.179 337.328C510.883 337.68 511.015 338.296 510.575 339.176C510.575 339.264 510.091 340.188 509.123 341.948C508.155 343.62 507.011 345.644 505.691 348.02C504.459 350.396 503.359 352.684 502.391 354.884C501.863 356.116 501.423 357.26 501.071 358.316C500.719 359.372 500.543 360.252 500.543 360.956C500.543 362.1 500.983 362.672 501.863 362.672C502.479 362.672 503.403 362.32 504.635 361.616C506.571 360.648 508.507 359.24 510.443 357.392C512.467 355.544 514.315 353.652 515.987 351.716C516.955 350.748 517.835 349.824 518.627 348.944C519.419 348.064 520.167 347.14 520.871 346.172C521.135 345.908 521.355 345.776 521.531 345.776C522.059 345.776 522.323 346.172 522.323 346.964C522.323 347.404 522.147 347.8 521.795 348.152C520.827 349.296 519.859 350.484 518.891 351.716C517.923 352.86 516.911 354.004 515.855 355.148C514.887 356.292 513.875 357.436 512.819 358.58C511.851 359.636 510.839 360.648 509.783 361.616C505.999 365.136 502.523 366.896 499.355 366.896C497.947 366.896 496.759 366.412 495.791 365.444C494.823 364.388 494.339 362.76 494.339 360.56C494.339 358.888 494.647 356.996 495.263 354.884C495.439 353.916 495.703 352.948 496.055 351.98C496.495 351.012 496.891 350 497.243 348.944C495.483 351.76 493.459 354.576 491.171 357.392C488.971 360.12 486.595 362.408 484.043 364.256C481.491 366.104 478.807 367.028 475.991 367.028Z" fill="#CFD3EC"/>
</svg>
